<mxfile host="app.diagrams.net" modified="2024-01-06T15:30:40.428Z" agent="Mozilla/5.0 (Macintosh; Intel Mac OS X 10_15_7) AppleWebKit/537.36 (KHTML, like Gecko) Chrome/119.0.0.0 Safari/537.36" version="22.1.17" etag="Dqps87-PP7eNhWCqpsYQ" type="github">
  <diagram name="Page-1" id="ZwL3KajhE_l5oSM-yIlO">
    <mxGraphModel>
      <root>
        <mxCell id="0" />
        <mxCell id="1" parent="0" />
      </root>
    </mxGraphModel>
  </diagram>
</mxfile>
